Coordinates
version=1
nRows=14
nColumns=24
inDegrees=yes

Units are S.I. units (second, meters, Newtons, ...)
Angles are in degrees.

endheader
time	pelvis_tilt	pelvis_list	pelvis_rotation	pelvis_tx	pelvis_ty	pelvis_tz	hip_flexion_r	hip_adduction_r	hip_rotation_r	knee_angle_r	ankle_angle_r	subtalar_angle_r	mtp_angle_r	hip_flexion_l	hip_adduction_l	hip_rotation_l	knee_angle_l	ankle_angle_l	subtalar_angle_l	mtp_angle_l	lumbar_extension	lumbar_bending	lumbar_rotation
      0.66183333	    -11.85586839	     -2.05600565	     -3.24796329	     -0.42481465	      0.98062814	      0.31291900	     22.88618267	      8.57362105	      2.47203668	    -15.34422788	     -4.37828075	      7.86431545	    -42.85487702	     28.39710649	     -4.14036256	     -4.43162979	    -63.99697617	    -17.55644570	     -9.32111639	     -3.06245284	     22.34888860	      2.63928943	      3.63180822
      0.66600000	    -11.88256461	     -1.86728845	     -3.27707039	     -0.41947392	      0.98119972	      0.31318449	     22.53860219	      8.43721766	      2.62881873	    -15.27701106	     -4.37201887	      7.56397074	    -42.87057314	     29.09882069	     -3.95163054	     -4.45086983	    -63.95108532	    -16.84442108	     -9.77481559	     -3.05660146	     22.34984440	      2.49781451	      3.76375173
      0.67016667	    -11.87769918	     -1.72355947	     -3.22959742	     -0.41411567	      0.98180743	      0.31338226	     22.12539055	      8.32061457	      2.79399335	    -15.15010375	     -4.34124214	      7.39692166	    -42.87938165	     29.76072058	     -3.78051709	     -4.36179863	    -63.76688603	    -16.47870114	    -10.03102755	     -3.05929453	     22.34071524	      2.23546260	      3.87354596
      0.67433333	    -11.86793787	     -1.56538665	     -3.20435131	     -0.40878408	      0.98240096	      0.31355458	     21.71825681	      8.18923333	      2.95294786	    -15.04456926	     -4.30549128	      7.17260747	    -42.89008665	     30.39292885	     -3.59538451	     -4.32659731	    -63.52517920	    -15.98809236	    -10.39488719	     -3.06733217	     22.33927632	      2.01357214	      3.97730002
      0.67850000	    -11.86177738	     -1.41404049	     -3.17881763	     -0.40345107	      0.98296024	      0.31373246	     21.31122208	      8.06477576	      3.11255792	    -14.92963248	     -4.27344317	      6.94168381	    -42.90298288	     31.00895159	     -3.42040086	     -4.31725310	    -63.21004762	    -15.51925221	    -10.79147984	     -3.08489338	     22.32145657	      1.83364127	      4.07510891
      0.68266667	    -11.86022798	     -1.27305504	     -3.14994172	     -0.39810984	      0.98349056	      0.31389365	     20.90473958	      7.94569019	      3.26303640	    -14.81446334	     -4.23903918	      6.73188545	    -42.91624085	     31.60061535	     -3.25188927	     -4.29762050	    -62.78859660	    -15.11014854	    -11.18500746	     -3.11084598	     22.31605620	      1.65282350	      4.17017142
      0.68683333	    -11.85197049	     -1.12665677	     -3.15442807	     -0.39284958	      0.98399867	      0.31406197	     20.50905392	      7.82679155	      3.41342575	    -14.72016529	     -4.21681255	      6.48468891	    -42.93952412	     32.16680722	     -3.09314718	     -4.35192600	    -62.30159487	    -14.70224817	    -11.72373037	     -3.17068869	     22.25322215	      1.54089872	      4.27306280
      0.69100000	    -11.83144210	     -1.00007366	     -3.11860257	     -0.38748349	      0.98451909	      0.31419945	     20.07007327	      7.71520817	      3.55291680	    -14.58375470	     -4.16323747	      6.28678028	    -42.96557676	     32.68491063	     -2.93704978	     -4.36701593	    -61.70103573	    -14.40270018	    -12.21724851	     -3.25601279	     22.21840618	      1.37171535	      4.38469721
      0.69516667	    -11.80978452	     -0.88763563	     -3.07279062	     -0.38211023	      0.98501058	      0.31429952	     19.62229331	      7.60911000	      3.67263542	    -14.43854497	     -4.09008291	      6.11309991	    -42.98966326	     33.17638388	     -2.78969705	     -4.37453917	    -61.02055664	    -14.12174934	    -12.67059035	     -3.35156956	     22.17564736	      1.22215283	      4.47054273
      0.69933333	    -11.82920252	     -0.81651472	     -2.98190745	     -0.37673700	      0.98538207	      0.31434688	     19.20157882	      7.53727217	      3.80158087	    -14.26515960	     -4.00394074	      5.98857274	    -42.99826707	     33.69829790	     -2.66573084	     -4.30554109	    -60.26737798	    -13.88616740	    -12.92749595	     -3.39574247	     22.22432896	      1.07058867	      4.52701379
      0.70350000	    -11.83950803	     -0.73020484	     -2.92407269	     -0.37134783	      0.98575552	      0.31440032	     18.77640047	      7.45305857	      3.90729866	    -14.10864376	     -3.89820618	      5.80708244	    -43.00857805	     34.16733383	     -2.53936486	     -4.31297326	    -59.43329009	    -13.59437596	    -13.31926234	     -3.45760262	     22.26088836	      0.93304566	      4.57826677
      0.70766667	    -11.84162927	     -0.65234845	     -2.86109023	     -0.36596946	      0.98610525	      0.31445844	     18.33686569	      7.37611775	      4.01502590	    -13.94100151	     -3.79367672	      5.63679084	    -43.01979031	     34.60009046	     -2.42248521	     -4.33163827	    -58.51623473	    -13.35102739	    -13.75147814	     -3.53504688	     22.26455756	      0.81314702	      4.62636752
      0.71183333	    -11.76237189	     -0.55221599	     -2.85073331	     -0.36065761	      0.98659324	      0.31452902	     17.82467045	      7.27911972	      4.13937628	    -13.79265717	     -3.70569452	      5.44624259	    -43.05136771	     34.90306400	     -2.30126524	     -4.47713342	    -57.48218130	    -13.27197901	    -14.57219699	     -3.76106545	     22.03767835	      0.68019423	      4.69737824
      0.71600000	    -11.84606333	     -0.53250366	     -2.75127479	     -0.35541551	      0.98667771	      0.31440056	     17.47565796	      7.24123403	      4.23967134	    -13.61817258	     -3.62642763	      5.36413775	    -43.05481110	     35.39177934	     -2.20892617	     -4.38717816	    -56.43226810	    -13.09116484	    -14.69378462	     -3.79690380	     22.06323386	      0.69108859	      4.70893401
